<svg width="100" height="100" viewBox="0 0 100 100" fill="none" xmlns="http://www.w3.org/2000/svg">
<rect width="100" height="100" rx="30" fill="#2563EB"/>
<path d="M26.424 73V39.208C26.424 36.6907 26.9787 34.4293 28.088 32.424C29.24 30.376 30.84 28.776 32.888 27.624C34.936 26.4293 37.368 25.832 40.184 25.832C42.3173 25.832 44.1733 26.1947 45.752 26.92C47.3733 27.6027 48.7813 28.5627 49.976 29.8L43.832 35.944C43.4053 35.5173 42.9147 35.1973 42.36 34.984C41.848 34.728 41.2293 34.6 40.504 34.6C39.1813 34.6 38.136 34.984 37.368 35.752C36.6 36.52 36.216 37.5653 36.216 38.888V73H26.424ZM19.576 50.216V41.896H45.176V50.216H19.576ZM59.4355 73L46.2515 41.896H56.8115L65.7715 67.816H61.1635L70.1235 41.896H80.4915L67.3075 72.936L59.4355 73Z" fill="white"/>
</svg>
