<svg width="464" height="100" viewBox="0 0 464 100" fill="none" xmlns="http://www.w3.org/2000/svg">
<rect width="100" height="100" rx="30" fill="#2563EB"/>
<path d="M26.424 73V39.208C26.424 36.6907 26.9787 34.4293 28.088 32.424C29.24 30.376 30.84 28.776 32.888 27.624C34.936 26.4293 37.368 25.832 40.184 25.832C42.3173 25.832 44.1733 26.1947 45.752 26.92C47.3733 27.6027 48.7813 28.5627 49.976 29.8L43.832 35.944C43.4053 35.5173 42.9147 35.1973 42.36 34.984C41.848 34.728 41.2293 34.6 40.504 34.6C39.1813 34.6 38.136 34.984 37.368 35.752C36.6 36.52 36.216 37.5653 36.216 38.888V73H26.424ZM19.576 50.216V41.896H45.176V50.216H19.576ZM59.4355 73L46.2515 41.896H56.8115L65.7715 67.816H61.1635L70.1235 41.896H80.4915L67.3075 72.936L59.4355 73Z" fill="white"/>
<path d="M117.264 68V34.112H124.8V68H117.264ZM123.024 54.704V48.224H139.968V54.704H123.024ZM123.024 40.592V34.112H140.736V40.592H123.024ZM144.905 68V44.672H152.249V68H144.905ZM152.249 55.184L149.177 52.784C149.785 50.064 150.809 47.952 152.249 46.448C153.689 44.944 155.689 44.192 158.249 44.192C159.369 44.192 160.345 44.368 161.177 44.72C162.041 45.04 162.793 45.552 163.433 46.256L159.065 51.776C158.745 51.424 158.345 51.152 157.865 50.96C157.385 50.768 156.841 50.672 156.233 50.672C155.017 50.672 154.041 51.056 153.305 51.824C152.601 52.56 152.249 53.68 152.249 55.184ZM174.477 68.48C172.333 68.48 170.413 67.952 168.717 66.896C167.053 65.84 165.725 64.4 164.733 62.576C163.773 60.752 163.293 58.672 163.293 56.336C163.293 54 163.773 51.92 164.733 50.096C165.725 48.272 167.053 46.832 168.717 45.776C170.413 44.72 172.333 44.192 174.477 44.192C176.045 44.192 177.453 44.496 178.701 45.104C179.981 45.712 181.021 46.56 181.821 47.648C182.621 48.704 183.069 49.92 183.165 51.296V61.376C183.069 62.752 182.621 63.984 181.821 65.072C181.053 66.128 180.029 66.96 178.749 67.568C177.469 68.176 176.045 68.48 174.477 68.48ZM175.965 61.856C177.533 61.856 178.797 61.344 179.757 60.32C180.717 59.264 181.197 57.936 181.197 56.336C181.197 55.248 180.973 54.288 180.525 53.456C180.109 52.624 179.501 51.984 178.701 51.536C177.933 51.056 177.037 50.816 176.013 50.816C174.989 50.816 174.077 51.056 173.277 51.536C172.509 51.984 171.885 52.624 171.405 53.456C170.957 54.288 170.733 55.248 170.733 56.336C170.733 57.392 170.957 58.336 171.405 59.168C171.853 60 172.477 60.656 173.277 61.136C174.077 61.616 174.973 61.856 175.965 61.856ZM180.909 68V61.712L182.013 56.048L180.909 50.384V44.672H188.109V68H180.909ZM208.688 68V54.704C208.688 53.488 208.304 52.512 207.536 51.776C206.8 51.008 205.856 50.624 204.704 50.624C203.904 50.624 203.2 50.8 202.592 51.152C201.984 51.472 201.504 51.952 201.152 52.592C200.8 53.2 200.624 53.904 200.624 54.704L197.792 53.312C197.792 51.488 198.192 49.888 198.992 48.512C199.792 47.136 200.896 46.08 202.304 45.344C203.744 44.576 205.36 44.192 207.152 44.192C208.88 44.192 210.4 44.608 211.712 45.44C213.056 46.24 214.112 47.312 214.88 48.656C215.648 50 216.031 51.472 216.031 53.072V68H208.688ZM193.28 68V44.672H200.624V68H193.28ZM232.028 68.528C229.628 68.528 227.452 68 225.5 66.944C223.548 65.888 222.012 64.432 220.892 62.576C219.772 60.72 219.212 58.64 219.212 56.336C219.212 54 219.772 51.92 220.892 50.096C222.044 48.24 223.596 46.784 225.548 45.728C227.5 44.672 229.692 44.144 232.124 44.144C233.948 44.144 235.612 44.464 237.116 45.104C238.652 45.712 240.012 46.64 241.196 47.888L236.492 52.592C235.948 51.984 235.308 51.536 234.572 51.248C233.868 50.96 233.052 50.816 232.124 50.816C231.068 50.816 230.124 51.056 229.292 51.536C228.492 51.984 227.852 52.624 227.372 53.456C226.924 54.256 226.7 55.2 226.7 56.288C226.7 57.376 226.924 58.336 227.372 59.168C227.852 60 228.508 60.656 229.34 61.136C230.172 61.616 231.1 61.856 232.124 61.856C233.084 61.856 233.932 61.696 234.668 61.376C235.436 61.024 236.092 60.544 236.636 59.936L241.292 64.64C240.076 65.92 238.7 66.896 237.164 67.568C235.628 68.208 233.916 68.528 232.028 68.528ZM244.561 68V44.672H251.905V68H244.561ZM248.257 41.456C247.105 41.456 246.145 41.072 245.377 40.304C244.641 39.504 244.273 38.544 244.273 37.424C244.273 36.272 244.641 35.312 245.377 34.544C246.145 33.776 247.105 33.392 248.257 33.392C249.409 33.392 250.353 33.776 251.089 34.544C251.825 35.312 252.193 36.272 252.193 37.424C252.193 38.544 251.825 39.504 251.089 40.304C250.353 41.072 249.409 41.456 248.257 41.456ZM265.572 68.576C264.196 68.576 262.836 68.4 261.492 68.048C260.18 67.696 258.948 67.2 257.796 66.56C256.676 65.888 255.716 65.12 254.916 64.256L259.092 60.032C259.86 60.864 260.772 61.52 261.828 62C262.884 62.448 264.036 62.672 265.284 62.672C266.148 62.672 266.804 62.544 267.252 62.288C267.732 62.032 267.972 61.68 267.972 61.232C267.972 60.656 267.684 60.224 267.108 59.936C266.564 59.616 265.86 59.344 264.996 59.12C264.132 58.864 263.22 58.592 262.26 58.304C261.3 58.016 260.388 57.616 259.524 57.104C258.66 56.592 257.956 55.888 257.412 54.992C256.868 54.064 256.596 52.896 256.596 51.488C256.596 49.984 256.98 48.688 257.748 47.6C258.516 46.48 259.604 45.6 261.012 44.96C262.42 44.32 264.068 44 265.956 44C267.94 44 269.764 44.352 271.428 45.056C273.124 45.728 274.5 46.736 275.556 48.08L271.38 52.304C270.644 51.44 269.812 50.832 268.884 50.48C267.988 50.128 267.108 49.952 266.244 49.952C265.412 49.952 264.788 50.08 264.372 50.336C263.956 50.56 263.748 50.896 263.748 51.344C263.748 51.824 264.02 52.208 264.564 52.496C265.108 52.784 265.812 53.04 266.676 53.264C267.54 53.488 268.452 53.76 269.412 54.08C270.372 54.4 271.284 54.832 272.148 55.376C273.012 55.92 273.716 56.656 274.26 57.584C274.804 58.48 275.076 59.664 275.076 61.136C275.076 63.408 274.212 65.216 272.484 66.56C270.788 67.904 268.484 68.576 265.572 68.576ZM299.433 68L286.377 34.112H294.441L304.377 61.52H301.065L311.145 34.112H319.113L305.913 68H299.433ZM322.42 68V44.672H329.764V68H322.42ZM326.116 41.456C324.964 41.456 324.004 41.072 323.236 40.304C322.5 39.504 322.132 38.544 322.132 37.424C322.132 36.272 322.5 35.312 323.236 34.544C324.004 33.776 324.964 33.392 326.116 33.392C327.268 33.392 328.212 33.776 328.948 34.544C329.684 35.312 330.052 36.272 330.052 37.424C330.052 38.544 329.684 39.504 328.948 40.304C328.212 41.072 327.268 41.456 326.116 41.456ZM346.216 68.528C343.816 68.528 341.64 68 339.688 66.944C337.736 65.888 336.2 64.432 335.08 62.576C333.96 60.72 333.4 58.64 333.4 56.336C333.4 54 333.96 51.92 335.08 50.096C336.232 48.24 337.784 46.784 339.736 45.728C341.688 44.672 343.88 44.144 346.312 44.144C348.136 44.144 349.8 44.464 351.304 45.104C352.84 45.712 354.2 46.64 355.384 47.888L350.68 52.592C350.136 51.984 349.496 51.536 348.76 51.248C348.056 50.96 347.24 50.816 346.312 50.816C345.256 50.816 344.312 51.056 343.48 51.536C342.68 51.984 342.04 52.624 341.56 53.456C341.112 54.256 340.888 55.2 340.888 56.288C340.888 57.376 341.112 58.336 341.56 59.168C342.04 60 342.696 60.656 343.528 61.136C344.36 61.616 345.288 61.856 346.312 61.856C347.272 61.856 348.12 61.696 348.856 61.376C349.624 61.024 350.28 60.544 350.824 59.936L355.48 64.64C354.264 65.92 352.888 66.896 351.352 67.568C349.816 68.208 348.104 68.528 346.216 68.528ZM361.685 68V35.024H369.029V68H361.685ZM356.405 50.912V44.672H374.309V50.912H356.405ZM388.308 68.528C385.908 68.528 383.732 68 381.78 66.944C379.86 65.856 378.34 64.384 377.22 62.528C376.1 60.672 375.54 58.592 375.54 56.288C375.54 53.984 376.1 51.92 377.22 50.096C378.34 48.272 379.86 46.832 381.78 45.776C383.7 44.688 385.876 44.144 388.308 44.144C390.74 44.144 392.916 44.672 394.836 45.728C396.756 46.784 398.276 48.24 399.396 50.096C400.516 51.92 401.076 53.984 401.076 56.288C401.076 58.592 400.516 60.672 399.396 62.528C398.276 64.384 396.756 65.856 394.836 66.944C392.916 68 390.74 68.528 388.308 68.528ZM388.308 61.856C389.364 61.856 390.292 61.632 391.092 61.184C391.892 60.704 392.5 60.048 392.916 59.216C393.364 58.352 393.588 57.376 393.588 56.288C393.588 55.2 393.364 54.256 392.916 53.456C392.468 52.624 391.844 51.984 391.044 51.536C390.276 51.056 389.364 50.816 388.308 50.816C387.284 50.816 386.372 51.056 385.572 51.536C384.772 51.984 384.148 52.624 383.7 53.456C383.252 54.288 383.028 55.248 383.028 56.336C383.028 57.392 383.252 58.352 383.7 59.216C384.148 60.048 384.772 60.704 385.572 61.184C386.372 61.632 387.284 61.856 388.308 61.856ZM404.733 68V44.672H412.077V68H404.733ZM412.077 55.184L409.005 52.784C409.613 50.064 410.637 47.952 412.077 46.448C413.517 44.944 415.517 44.192 418.077 44.192C419.197 44.192 420.173 44.368 421.005 44.72C421.869 45.04 422.621 45.552 423.261 46.256L418.893 51.776C418.573 51.424 418.173 51.152 417.693 50.96C417.213 50.768 416.669 50.672 416.061 50.672C414.845 50.672 413.869 51.056 413.133 51.824C412.429 52.56 412.077 53.68 412.077 55.184ZM425.217 68V44.672H432.561V68H425.217ZM428.913 41.456C427.761 41.456 426.801 41.072 426.033 40.304C425.297 39.504 424.929 38.544 424.929 37.424C424.929 36.272 425.297 35.312 426.033 34.544C426.801 33.776 427.761 33.392 428.913 33.392C430.065 33.392 431.009 33.776 431.745 34.544C432.481 35.312 432.849 36.272 432.849 37.424C432.849 38.544 432.481 39.504 431.745 40.304C431.009 41.072 430.065 41.456 428.913 41.456ZM447.477 68.48C445.333 68.48 443.413 67.952 441.717 66.896C440.053 65.84 438.725 64.4 437.733 62.576C436.773 60.752 436.293 58.672 436.293 56.336C436.293 54 436.773 51.92 437.733 50.096C438.725 48.272 440.053 46.832 441.717 45.776C443.413 44.72 445.333 44.192 447.477 44.192C449.045 44.192 450.453 44.496 451.701 45.104C452.981 45.712 454.021 46.56 454.821 47.648C455.621 48.704 456.069 49.92 456.165 51.296V61.376C456.069 62.752 455.621 63.984 454.821 65.072C454.053 66.128 453.029 66.96 451.749 67.568C450.469 68.176 449.045 68.48 447.477 68.48ZM448.965 61.856C450.533 61.856 451.797 61.344 452.757 60.32C453.717 59.264 454.197 57.936 454.197 56.336C454.197 55.248 453.973 54.288 453.525 53.456C453.109 52.624 452.501 51.984 451.701 51.536C450.933 51.056 450.037 50.816 449.013 50.816C447.989 50.816 447.077 51.056 446.277 51.536C445.509 51.984 444.885 52.624 444.405 53.456C443.957 54.288 443.733 55.248 443.733 56.336C443.733 57.392 443.957 58.336 444.405 59.168C444.853 60 445.477 60.656 446.277 61.136C447.077 61.616 447.973 61.856 448.965 61.856ZM453.909 68V61.712L455.013 56.048L453.909 50.384V44.672H461.109V68H453.909Z" fill="#2563EB"/>
</svg>
